<svg width="32" height="32" viewBox="0 0 32 32" fill="none" xmlns="http://www.w3.org/2000/svg">
<g id="tabler:tree">
<path id="Vector" d="M16 17.3333L13.3333 14.6666M16 16L18.6667 13.3333M16 28V10.6666M13.0987 21.3333C12.5153 21.2991 11.9465 21.1376 11.4323 20.86C10.918 20.5824 10.4709 20.1955 10.1223 19.7265C9.77364 19.2575 9.532 18.7178 9.41436 18.1454C9.29672 17.573 9.30592 16.9818 9.44133 16.4133C8.95796 16.0108 8.57633 15.4999 8.32745 14.9222C8.07857 14.3445 7.96944 13.7162 8.00893 13.0885C8.04842 12.4607 8.23541 11.851 8.55472 11.3091C8.87403 10.7671 9.31666 10.3081 9.84666 9.9693C9.38182 9.14351 9.22526 8.1795 9.40488 7.24905C9.58449 6.31859 10.0886 5.48212 10.8274 4.88868C11.5662 4.29523 12.4917 3.98336 13.439 4.00863C14.3863 4.03389 15.2939 4.39465 16 5.02664C16.7063 4.39565 17.6135 4.03575 18.5603 4.01097C19.5071 3.9862 20.4319 4.29816 21.1702 4.89134C21.9085 5.48452 22.4124 6.32044 22.5922 7.2503C22.772 8.18017 22.616 9.14367 22.152 9.9693C22.6821 10.308 23.1248 10.7669 23.4443 11.3088C23.7637 11.8507 23.9508 12.4603 23.9904 13.0881C24.03 13.7159 23.921 14.3442 23.6723 14.922C23.4235 15.4997 23.042 16.0107 22.5587 16.4133C22.6986 17.001 22.7036 17.6128 22.5733 18.2028C22.443 18.7927 22.1807 19.3455 21.8062 19.8195C21.4317 20.2936 20.9547 20.6767 20.4109 20.94C19.8672 21.2034 19.2708 21.3401 18.6667 21.34H13.3333L13.0987 21.3333Z" stroke="#67AF01" stroke-width="1.5" stroke-linecap="round" stroke-linejoin="round"/>
</g>
</svg>
